<?xml version="1.0" encoding="UTF-8" standalone="no"?>
<svg
   xmlns:dc="http://purl.org/dc/elements/1.1/"
   xmlns:cc="http://creativecommons.org/ns#"
   xmlns:rdf="http://www.w3.org/1999/02/22-rdf-syntax-ns#"
   xmlns:svg="http://www.w3.org/2000/svg"
   xmlns="http://www.w3.org/2000/svg"
   xmlns:sodipodi="http://sodipodi.sourceforge.net/DTD/sodipodi-0.dtd"
   xmlns:inkscape="http://www.inkscape.org/namespaces/inkscape"
   id="svg8"
   version="1.1"
   viewBox="0 0 8.4666665 8.4666669"
   height="32"
   width="32"
   sodipodi:docname="favicon.svg"
   inkscape:version="0.92.1 r15371">
  <sodipodi:namedview
     pagecolor="#ffffff"
     bordercolor="#666666"
     borderopacity="1"
     objecttolerance="10"
     gridtolerance="10"
     guidetolerance="10"
     inkscape:pageopacity="0"
     inkscape:pageshadow="2"
     inkscape:window-width="1920"
     inkscape:window-height="1051"
     id="namedview10"
     showgrid="false"
     inkscape:zoom="23.104492"
     inkscape:cx="-3.0352931"
     inkscape:cy="15.913437"
     inkscape:window-x="0"
     inkscape:window-y="0"
     inkscape:window-maximized="1"
     inkscape:current-layer="svg8" />
  <defs
     id="defs2" />
  <metadata
     id="metadata5">
    <rdf:RDF>
      <cc:Work
         rdf:about="">
        <dc:format>image/svg+xml</dc:format>
        <dc:type
           rdf:resource="http://purl.org/dc/dcmitype/StillImage" />
        <dc:title />
      </cc:Work>
    </rdf:RDF>
  </metadata>
  <g
     transform="translate(270.93332,-203.86665)"
     id="layer1"
     style="fill:#b5b5b5;fill-opacity:1">
    <g
       style="fill:#b5b5b5;fill-opacity:1"
       id="g4608"
       transform="matrix(0.14287489,0,0,0.14287489,-270.10221,169.06834)">
      <path
         style="opacity:1;fill:#b5b5b5;fill-opacity:1;fill-rule:nonzero;stroke:none;stroke-width:4.91338587;stroke-miterlimit:4;stroke-dasharray:none;stroke-opacity:1"
         d="M 69.994141,0 A 69.993731,69.993731 0 0 0 0,69.994141 69.993731,69.993731 0 0 0 69.994141,139.98828 69.993731,69.993731 0 0 0 139.98828,69.994141 69.993731,69.993731 0 0 0 69.994141,0 Z m 0.08203,14.960938 A 55.033448,55.033448 0 0 1 125.10938,69.994141 55.033448,55.033448 0 0 1 70.076172,125.02734 55.033448,55.033448 0 0 1 15.042969,69.994141 55.033448,55.033448 0 0 1 70.076171,14.960938 Z"
         transform="matrix(0.26458333,0,0,0.26458333,5.2933254,254.66829)"
         id="path4515" />
      <path
         style="opacity:1;fill:#b5b5b5;fill-opacity:1;fill-rule:nonzero;stroke:none;stroke-width:4.91338634;stroke-miterlimit:4;stroke-dasharray:none;stroke-opacity:1"
         d="m 70.037109,30.044922 a 39.905076,39.905076 0 0 0 -39.90625,39.90625 39.905076,39.905076 0 0 0 39.90625,39.904298 39.905076,39.905076 0 0 0 39.904301,-39.904298 39.905076,39.905076 0 0 0 -39.904301,-39.90625 z m -0.04297,15.507812 A 24.440516,24.440516 0 0 1 94.433594,69.994141 24.440516,24.440516 0 0 1 69.994141,94.433594 24.440516,24.440516 0 0 1 45.552734,69.994141 24.440516,24.440516 0 0 1 69.994141,45.552734 Z"
         transform="matrix(0.26458333,0,0,0.26458333,5.2933254,254.66829)"
         id="path4515-3-6" />
      <circle
         style="opacity:1;fill:#b5b5b5;fill-opacity:1;fill-rule:nonzero;stroke:none;stroke-width:1.30000031;stroke-miterlimit:4;stroke-dasharray:none;stroke-opacity:1"
         id="path4515-3-6-7-5"
         cx="23.823822"
         cy="273.17615"
         r="2.6417363" />
    </g>
  </g>
</svg>
