<?xml version="1.0" standalone="no"?>
<!DOCTYPE svg PUBLIC "-//W3C//DTD SVG 20010904//EN"
 "http://www.w3.org/TR/2001/REC-SVG-20010904/DTD/svg10.dtd">
<svg version="1.0" xmlns="http://www.w3.org/2000/svg"
 width="700.000000pt" height="700.000000pt" viewBox="0 0 700.000000 700.000000"
 preserveAspectRatio="xMidYMid meet">
<metadata>
Created by potrace 1.11, written by Peter Selinger 2001-2013
</metadata>
<g transform="translate(0.000000,700.000000) scale(0.100000,-0.100000)"
fill="#000000" stroke="none">
<path d="M3350 5684 c-306 -28 -557 -97 -815 -224 -582 -286 -1005 -812 -1159
-1441 -82 -339 -82 -699 1 -1039 108 -446 369 -866 715 -1152 323 -267 690
-431 1108 -495 156 -23 444 -23 600 0 418 64 785 228 1108 495 346 286 607
706 715 1152 83 340 83 700 1 1039 -110 448 -369 865 -716 1153 -321 266 -689
432 -1098 493 -105 15 -376 27 -460 19z m445 -489 c534 -95 985 -426 1233
-904 255 -491 257 -1082 5 -1573 -392 -764 -1278 -1120 -2091 -842 -137 47
-271 114 -408 205 -154 102 -353 303 -457 459 -268 405 -355 870 -251 1340
111 500 447 927 909 1155 205 101 361 148 575 175 105 12 377 4 485 -15z"/>
<path d="M3346 4739 c-486 -67 -881 -395 -1031 -855 -81 -247 -76 -552 11
-796 147 -409 483 -706 908 -803 431 -99 918 61 1202 394 155 181 241 357 291
591 23 114 24 342 0 463 -100 502 -492 896 -989 992 -103 20 -300 27 -392 14z
m397 -516 c232 -82 397 -246 481 -480 30 -84 31 -95 31 -243 0 -148 -1 -159
-31 -242 -61 -169 -176 -314 -322 -405 -40 -25 -112 -60 -160 -77 -83 -30 -94
-31 -242 -31 -148 0 -159 1 -242 31 -319 114 -518 392 -518 724 0 355 226 647
575 741 56 15 97 18 205 16 120 -3 144 -7 223 -34z"/>
<path d="M3383 3789 c-64 -25 -131 -88 -163 -154 -21 -41 -25 -65 -25 -135 0
-73 4 -92 27 -135 32 -60 87 -114 148 -146 64 -33 194 -34 260 -2 59 29 124
94 152 152 33 66 33 207 0 268 -33 63 -74 106 -134 138 -72 39 -187 45 -265
14z"/>
</g>
</svg>
